<?xml version="1.0" encoding="UTF-8"?>
<svg xmlns="http://www.w3.org/2000/svg" width="1080" height="1350" viewBox="0 0 1080 1350">
  <defs>
    <linearGradient id="paper" x1="0" y1="0" x2="1" y2="1">
      <stop offset="0%" stop-color="#fffaf0"/>
      <stop offset="58%" stop-color="#fffdf8"/>
      <stop offset="100%" stop-color="#f7ead1"/>
    </linearGradient>
    <linearGradient id="gold" x1="0" y1="0" x2="1" y2="1">
      <stop offset="0%" stop-color="#ffe27a"/>
      <stop offset="100%" stop-color="#f2b712"/>
    </linearGradient>
    <filter id="softShadow" x="-20%" y="-20%" width="140%" height="140%">
      <feDropShadow dx="0" dy="10" stdDeviation="18" flood-color="#6b4a00" flood-opacity="0.16"/>
    </filter>
    <filter id="tinyShadow" x="-20%" y="-20%" width="140%" height="140%">
      <feDropShadow dx="0" dy="4" stdDeviation="8" flood-color="#4d3600" flood-opacity="0.14"/>
    </filter>
    <pattern id="dots" width="36" height="36" patternUnits="userSpaceOnUse">
      <circle cx="3" cy="3" r="1.4" fill="#efd28a" opacity="0.35"/>
    </pattern>
  </defs>
  <rect width="1080" height="1350" fill="url(#paper)"/>
  <rect width="1080" height="1350" fill="url(#dots)" opacity="0.55"/>
  
  <circle cx="924" cy="244" r="112" fill="#f5c518" opacity="0.10"/>
  <circle cx="122" cy="1095" r="132" fill="#f0c15c" opacity="0.10"/>
  <path d="M890 640 C930 620, 982 620, 1020 650" fill="none" stroke="#d7a51a" stroke-width="5" opacity="0.24"/>
  <path d="M42 456 C96 426, 154 432, 204 466" fill="none" stroke="#d7a51a" stroke-width="5" opacity="0.18"/>
  
  <g transform="translate(58 42)">
    <rect x="0" y="0" width="58" height="58" rx="16" fill="url(#gold)" filter="url(#tinyShadow)"/>
    <path d="M19 39 L23 23 L36 10 C41 13 45 17 48 22 L35 35 Z" fill="none" stroke="#121212" stroke-width="5" stroke-linejoin="round"/>
    <path d="M17 44 H40" stroke="#121212" stroke-width="5" stroke-linecap="round"/>
    <text x="78" y="25" font-family="Avenir Next, Helvetica, Arial, sans-serif" font-size="30" font-weight="800" fill="#121212">Axl Light</text>
    <text x="78" y="55" font-family="Avenir Next, Helvetica, Arial, sans-serif" font-size="19" fill="#666">Obsidian reading annotations</text>
  </g>
  <g transform="translate(902 50)">
    <rect x="0" y="0" width="118" height="48" rx="18" fill="url(#gold)" filter="url(#tinyShadow)"/>
    <text x="59" y="31" text-anchor="middle" font-family="Avenir Next, Helvetica, Arial, sans-serif" font-size="22" font-weight="800" fill="#121212">04 / 07</text>
  </g>
  
  <g transform="translate(64 154)">
    <rect x="0" y="0" width="210" height="54" rx="18" fill="#ffe082" opacity="0.92"/>
    <text x="25" y="35" font-family="Avenir Next, Helvetica, Arial, sans-serif" font-size="21" font-weight="800" fill="#171717">✦ Overview cards</text>
  </g>
  
  <text x="70" y="300" font-family="Georgia, 'Times New Roman', serif" font-size="82" font-weight="900" fill="#111" letter-spacing="-2">
    <tspan x="70" dy="0">Highlights and notes</tspan><tspan x="70" dy="94">stay together</tspan>
  </text>
  <path d="M72 594 C244 576, 476 577, 810 590" fill="none" stroke="#f5c518" stroke-width="13" stroke-linecap="round" opacity="0.82"/>
  
  <text x="74" y="652" font-family="Avenir Next, Helvetica, Arial, sans-serif" font-size="31" font-weight="600" fill="#1c1c1c">
    <tspan x="74" dy="0">Each passage becomes one clean card: quote, note,</tspan><tspan x="74" dy="42">Jump, edit, export.</tspan>
  </text>
  
  
  <g transform="translate(70 730) scale(1 1)" filter="url(#softShadow)">
    <rect x="0" y="0" width="940" height="529" rx="28" fill="#fff"/>
    <rect x="0" y="0" width="940" height="48" rx="28" fill="#fbfbfb"/>
    <rect x="0" y="28" width="940" height="20" fill="#fbfbfb"/>
    <circle cx="26" cy="24" r="6" fill="#ff5f57"/>
    <circle cx="46" cy="24" r="6" fill="#ffbd2e"/>
    <circle cx="66" cy="24" r="6" fill="#28c840"/>
    <text x="124" y="30" font-family="Avenir Next, Helvetica, Arial, sans-serif" font-size="13" font-weight="700" fill="#555">Axl Light demo vault</text>
    <rect x="0" y="48" width="54" height="481" fill="#f7f7f8"/>
    <rect x="54" y="48" width="186" height="481" fill="#fbfbfb"/>
    <rect x="240" y="48" width="410" height="481" fill="#fff"/>
    <rect x="650" y="48" width="290" height="481" fill="#fffdf8"/>
    <line x1="54" y1="48" x2="54" y2="529" stroke="#e5e1d8"/>
    <line x1="240" y1="48" x2="240" y2="529" stroke="#e5e1d8"/>
    <line x1="650" y1="48" x2="650" y2="529" stroke="#e5e1d8"/>

    
    <g fill="none" stroke="#8a8a8a" stroke-width="1.8" stroke-linecap="round" stroke-linejoin="round" opacity="0.82">
      <path d="M26 86h9v9h-9z"/>
      <path d="M26 126h10M31 121v10"/>
      <path d="M25 166h12M25 172h12M25 178h8"/>
      <path d="M26 216l5-5 5 5-5 5z"/>
      <circle cx="31" cy="262" r="6"/>
      <path d="M25 312h12M31 306v12"/>
      <path d="M26 438h10M26 446h10"/>
      <circle cx="31" cy="482" r="5"/>
    </g>
    
    <text x="78" y="84" font-family="Avenir Next, Helvetica, Arial, sans-serif" font-size="14" font-weight="800" fill="#202020">Knowledge Vault</text>
    <g font-family="Avenir Next, Helvetica, Arial, sans-serif" font-size="12" fill="#555">
      <text x="82" y="126">Daily Notes</text>
      <text x="82" y="158">Reading Notes</text>
      <rect x="68" y="178" width="152" height="28" rx="8" fill="#efe8ff"/>
      <text x="82" y="197" font-weight="700" fill="#4b2db7">AI product essay</text>
      <text x="82" y="234">Papers</text>
      <text x="82" y="266">Course PDFs</text>
      <text x="82" y="298">Writing drafts</text>
    </g>
    
    <text x="274" y="92" font-family="Avenir Next, Helvetica, Arial, sans-serif" font-size="13" fill="#777">~/ Reading Notes / AI product essay.md</text>
    <text x="274" y="138" font-family="Avenir Next, Helvetica, Arial, sans-serif" font-size="24" font-weight="850" fill="#171717">AI product thinking</text>
    <g font-family="Avenir Next, Helvetica, Arial, sans-serif" font-size="15" fill="#222">
      <text x="274" y="184">The hard part is not shipping more features.</text>
      <rect x="274" y="205" width="308" height="22" rx="5" fill="#fff0a6"/>
      <text x="274" y="222">The product must understand the user at</text>
      <rect x="274" y="230" width="244" height="22" rx="5" fill="#fff0a6"/>
      <text x="274" y="247">the moment they need help.</text>
      <text x="274" y="296">Good interfaces should make the next step obvious,</text>
      <rect x="274" y="318" width="322" height="22" rx="5" fill="#efe0ff"/>
      <text x="274" y="335">not force people to remember the system.</text>
      <text x="274" y="384">The note belongs near the sentence, but the source</text>
      <text x="274" y="411">file should stay clean.</text>
    </g>
    <g transform="translate(286 446)">
      <rect x="0" y="0" width="286" height="40" rx="10" fill="#f6f0ff" stroke="#e0d2ff"/>
      <text x="18" y="25" font-family="Avenir Next, Helvetica, Arial, sans-serif" font-size="13" fill="#6f55a8">Annotations live in sidecar files, not in Markdown.</text>
    </g>
    
    <g transform="translate(670 68)">
      <g>
        <text x="0" y="18" font-family="Avenir Next, Helvetica, Arial, sans-serif" font-size="16" font-weight="850" fill="#171717">Annotation Overview</text>
        <text x="248" y="18" text-anchor="middle" font-family="Avenir Next, Helvetica, Arial, sans-serif" font-size="16" fill="#888">×</text>
      </g>
      <rect x="0" y="36" width="210" height="30" rx="8" fill="#fff" stroke="#e6dfd0"/>
      <text x="14" y="56" font-family="Avenir Next, Helvetica, Arial, sans-serif" font-size="11" fill="#8b8170">Search annotations...</text>
      <rect x="218" y="36" width="30" height="30" rx="8" fill="#fff" stroke="#e6dfd0"/>
      <path d="M226 45h14l-5 6v6l-4 2v-8z" fill="none" stroke="#777" stroke-width="1.5" stroke-linejoin="round"/>
      <g transform="translate(0 78)">
        <rect x="0" y="0" width="76" height="28" rx="7" fill="#fff" stroke="#e6dfd0"/>
        <text x="10" y="18" font-family="Avenir Next, Helvetica, Arial, sans-serif" font-size="10.5" fill="#333">All colors</text>
        <rect x="86" y="0" width="72" height="28" rx="7" fill="#fff" stroke="#e6dfd0"/>
        <text x="96" y="18" font-family="Avenir Next, Helvetica, Arial, sans-serif" font-size="10.5" fill="#333">All types</text>
        <rect x="168" y="0" width="80" height="28" rx="7" fill="#fff" stroke="#e6dfd0"/>
        <text x="178" y="18" font-family="Avenir Next, Helvetica, Arial, sans-serif" font-size="10.5" fill="#333">Newest</text>
      </g>
      <text x="0" y="126" font-family="Avenir Next, Helvetica, Arial, sans-serif" font-size="11" fill="#777">2 highlights · 1 note</text>
      
      <g transform="translate(0 142)">
        <rect x="0" y="0" width="248" height="148" rx="12" fill="#f5f0ff" stroke="#eadfca" filter="url(#tinyShadow)"/>
        <rect x="12" y="13" width="66" height="20" rx="10" fill="#e8d0ff"/>
        <text x="22" y="27" font-family="Avenir Next, Helvetica, Arial, sans-serif" font-size="10.5" font-weight="800" fill="#5500a0">purple</text>
        <text x="82" y="27" font-family="Avenir Next, Helvetica, Arial, sans-serif" font-size="10.5" fill="#777">md</text>
        <text x="106" y="27" font-family="Avenir Next, Helvetica, Arial, sans-serif" font-size="10.5" fill="#aaa">·</text>
        <text x="118" y="27" font-family="Avenir Next, Helvetica, Arial, sans-serif" font-size="10.5" fill="#777">highlight</text>
        <text x="236" y="27" text-anchor="end" font-family="Avenir Next, Helvetica, Arial, sans-serif" font-size="10.5" fill="#777">01:29 PM</text>
        <rect x="12" y="44" width="224" height="32" rx="7" fill="rgba(0,0,0,0.05)"/>
        <text x="22" y="58" font-family="Avenir Next, Helvetica, Arial, sans-serif" font-size="10.8" font-weight="700" fill="#222">not force people to remember the system.</text>
        <text x="14" y="96" font-family="Avenir Next, Helvetica, Arial, sans-serif" font-size="11.5" fill="#222"><tspan x="14" dy="0">This is exactly the kind of sentence</tspan><tspan x="14" dy="15">I want to revisit when writing.</tspan></text>
        <text x="14" y="132" font-family="Avenir Next, Helvetica, Arial, sans-serif" font-size="10.5" fill="#777">AI product essay.md</text>
        <text x="236" y="132" text-anchor="end" font-family="Avenir Next, Helvetica, Arial, sans-serif" font-size="10.5" fill="#777">Markdown</text>
        <rect x="0" y="112" width="28" height="24" rx="12" fill="#fff" stroke="#decfba"/><path d="M9 124l1.5-5.4 7.4-7.4 3.2 3.2-7.4 7.4z" fill="none" stroke="#555" stroke-width="1.4" stroke-linejoin="round"/>
        <rect x="36" y="112" width="44" height="24" rx="12" fill="#fff" stroke="#decfba"/>
        <text x="58" y="128" text-anchor="middle" font-family="Avenir Next, Helvetica, Arial, sans-serif" font-size="10.5" fill="#222">Jump</text>
        <rect x="86" y="112" width="54" height="24" rx="12" fill="#fff" stroke="#decfba"/>
        <text x="113" y="128" text-anchor="middle" font-family="Avenir Next, Helvetica, Arial, sans-serif" font-size="10.5" fill="#b23636">Delete</text>
      </g>
      
      <g transform="translate(0 304)">
        <rect x="0" y="0" width="248" height="140" rx="12" fill="#fffbea" stroke="#eadfca" filter="url(#tinyShadow)"/>
        <rect x="12" y="13" width="66" height="20" rx="10" fill="#fff3c4"/>
        <text x="22" y="27" font-family="Avenir Next, Helvetica, Arial, sans-serif" font-size="10.5" font-weight="800" fill="#92700a">yellow</text>
        <text x="82" y="27" font-family="Avenir Next, Helvetica, Arial, sans-serif" font-size="10.5" fill="#777">md</text>
        <text x="106" y="27" font-family="Avenir Next, Helvetica, Arial, sans-serif" font-size="10.5" fill="#aaa">·</text>
        <text x="118" y="27" font-family="Avenir Next, Helvetica, Arial, sans-serif" font-size="10.5" fill="#777">highlight</text>
        <text x="236" y="27" text-anchor="end" font-family="Avenir Next, Helvetica, Arial, sans-serif" font-size="10.5" fill="#777">01:31 PM</text>
        <rect x="12" y="44" width="224" height="32" rx="7" fill="rgba(0,0,0,0.05)"/>
        <text x="22" y="58" font-family="Avenir Next, Helvetica, Arial, sans-serif" font-size="10.8" font-weight="700" fill="#222">The product must understand the user at t…</text>
        
        <text x="14" y="102" font-family="Avenir Next, Helvetica, Arial, sans-serif" font-size="10.5" fill="#777">AI product essay.md</text>
        <text x="236" y="102" text-anchor="end" font-family="Avenir Next, Helvetica, Arial, sans-serif" font-size="10.5" fill="#777">Markdown</text>
        <rect x="0" y="112" width="68" height="24" rx="12" fill="#fff" stroke="#decfba"/><text x="34" y="128" text-anchor="middle" font-family="Avenir Next, Helvetica, Arial, sans-serif" font-size="10.5" fill="#222">Add note</text>
        <rect x="76" y="112" width="44" height="24" rx="12" fill="#fff" stroke="#decfba"/>
        <text x="98" y="128" text-anchor="middle" font-family="Avenir Next, Helvetica, Arial, sans-serif" font-size="10.5" fill="#222">Jump</text>
        <rect x="126" y="112" width="54" height="24" rx="12" fill="#fff" stroke="#decfba"/>
        <text x="153" y="128" text-anchor="middle" font-family="Avenir Next, Helvetica, Arial, sans-serif" font-size="10.5" fill="#b23636">Delete</text>
      </g>
    </g>
    <rect x="0" y="0" width="940" height="529" rx="28" fill="none" stroke="#eadfca" stroke-width="2"/>
  </g>
  <g transform="translate(596 1142)">
    <rect x="0" y="0" width="350" height="92" rx="22" fill="#fff7cd" stroke="#f2c94c" filter="url(#tinyShadow)"/>
    <circle cx="30" cy="34" r="8" fill="#7b3dd6"/>
    <text x="48" y="41" font-family="Avenir Next, Helvetica, Arial, sans-serif" font-size="18" font-weight="800" fill="#222">one card per passage</text>
    <text x="30" y="70" font-family="Avenir Next, Helvetica, Arial, sans-serif" font-size="16" fill="#333">highlight + note are merged together</text>
  </g>
  <path d="M650 1008 C704 1060, 726 1104, 596 1182" fill="none" stroke="#7b3dd6" stroke-width="5" stroke-linecap="round" stroke-dasharray="8 8" opacity="0.75"/>
  
  <path d="M0 1268 C150 1238, 282 1275, 432 1242 C590 1208, 750 1269, 1080 1228 L1080 1350 L0 1350 Z" fill="#fff" opacity="0.78"/>
  <text x="540" y="1296" text-anchor="middle" font-family="Avenir Next, Helvetica, Arial, sans-serif" font-size="23" font-weight="700" fill="#2f2a1d">Read deeply. Keep the source clean.</text>
  <path d="M458 1315 C508 1296, 608 1298, 668 1311" fill="none" stroke="#f5c518" stroke-width="5" stroke-linecap="round"/>
</svg>